<?xml version="1.0" encoding="UTF-8" standalone="no"?>
<!-- Generator: Adobe Illustrator 21.0.0, SVG Export Plug-In . SVG Version: 6.00 Build 0)  -->

<svg
   version="1.1"
   id="Layer_1"
   x="0px"
   y="0px"
   viewBox="0 0 1541.4661 1101.5889"
   xml:space="preserve"
   sodipodi:docname="camera-icon.svg"
   width="1541.4661"
   height="1101.5889"
   inkscape:version="1.2.1 (9c6d41e410, 2022-07-14)"
   xmlns:inkscape="http://www.inkscape.org/namespaces/inkscape"
   xmlns:sodipodi="http://sodipodi.sourceforge.net/DTD/sodipodi-0.dtd"
   xmlns="http://www.w3.org/2000/svg"
   xmlns:svg="http://www.w3.org/2000/svg"><defs
   id="defs7" /><sodipodi:namedview
   id="namedview5"
   pagecolor="#ffffff"
   bordercolor="#000000"
   borderopacity="0.25"
   inkscape:showpageshadow="2"
   inkscape:pageopacity="0.0"
   inkscape:pagecheckerboard="0"
   inkscape:deskcolor="#d1d1d1"
   showgrid="false"
   inkscape:zoom="0.402"
   inkscape:cx="758.70647"
   inkscape:cy="552.23881"
   inkscape:window-width="1920"
   inkscape:window-height="991"
   inkscape:window-x="-9"
   inkscape:window-y="-9"
   inkscape:window-maximized="1"
   inkscape:current-layer="Layer_1" />
<path
   d="m 1539.4,377 c 0,-55 10,-126.1 -14,-177.4 -24.3,-52.1 -76.7,-82.9 -133.3,-84.3 -11.1,-0.3 -22.2,0 -33.2,0 -63.1,0 -126.1,0 -189.2,0 -53.6,0 -107.2,0 -160.8,0 C 997.3,80.5 985.7,45.7 974,10.9 973.7,10 973.2,9.5 972.8,8.8 970.9,3.9 966.6,0 959.7,0 833.5,0 707.3,0 581.1,0 574.3,0 568.9,4.7 566.8,10.9 555.2,45.7 543.6,80.4 532,115.2 c -32.2,0 -64.3,-0.1 -96.5,-0.2 -0.4,-11.1 -2,-21.8 -8.3,-31.8 -10.5,-16.5 -28.4,-25.4 -47.7,-25.6 -25.7,-0.3 -51.3,0 -77,0 -9.8,0 -19.5,0 -29.3,0 -20.8,0.6 -40.1,11.7 -49.3,30.8 -4.2,8.7 -5.2,17.6 -5.5,26.7 -21.3,0.1 -42.6,0 -64,0.1 C 67.7,115.9 2.3,180 1.6,267.1 c -0.6,65.8 0,131.7 0,197.6 0,162.8 -3.6,326.1 0,488.8 1.9,89.1 71.7,147.7 157.8,148 51.4,0.2 102.8,0 154.2,0 196.4,0 392.9,0 589.3,0 154.9,0 309.9,0 464.8,0 8.3,0 16.6,0 24.9,0 66.3,-2.1 125.3,-44.8 142.1,-110.3 5.6,-21.7 4.6,-44 4.6,-66.2 0,-83.1 0,-166.1 0,-249.2 0.1,-99.5 0.1,-199.1 0.1,-298.8 z m -29.7,576 c -1.7,65.9 -50.4,116.9 -116.9,119 -104.9,0 -209.8,0 -314.8,0 -197.9,0 -395.9,0 -593.8,0 -111.6,0 -223.8,3.4 -335.3,0 -65.7,-2 -115.5,-51.4 -117.6,-117.2 -0.5,-15.6 0,-31.2 0,-46.8 0,-83.1 0,-166.3 0,-249.4 0,-95.3 0,-190.7 0,-286 0,-13.2 -0.7,-27.8 -1.3,-43 203.8,0 407.6,0 611.3,0 -8.6,8.6 -16.9,17.6 -24.7,27.1 -105,128.5 -119.6,314 -33.5,456.5 85.8,141.9 254.2,215.8 416.8,184.5 185,-35.7 317.7,-202.6 319.7,-389.1 -1.8,-164.7 -103.7,-313.8 -258.6,-371.9 -47.9,-18 -98.3,-25.7 -148.2,-24.1 -1,-0.2 -1.9,-0.6 -3,-0.6 -258.3,0 -516.6,0 -774.9,0 -30.6,0 -61.1,0 -91.7,0 2.2,-5 4.5,-9.9 7.5,-14.4 36.3,-54.7 93.4,-52.4 150,-52.4 66.4,0 132.7,0 199.1,0 195.3,0 390.6,0 585.9,0 1,0 1.9,0 2.9,0 3.2,0 6.4,0 9.7,0 v 0 c 128.2,0 256.3,-0.5 384.5,0 77.9,0.3 126.8,55.1 126.8,131.2 0,70.2 0,140.4 0,210.6 0.1,155 4.1,310.8 0.1,466 z M 995.9,248.8 c 170.4,34.9 292.1,186.8 293.9,359.7 -1.6,152.4 -96.4,291.9 -240.5,344.6 C 905.9,1005.6 741.2,961.7 642.5,845.3 542.1,726.6 528.4,551.9 608.8,418.9 688,287.7 845.6,218.1 995.9,248.8 Z m -321.3,51 c -179.9,0 -359.8,0 -539.7,0 -31.1,0 -62.3,0 -93.4,0 0,-19.4 0,-38.8 0,-58.3 244.5,0 488.9,0 733.3,0 -35.9,14.5 -69.7,34 -100.2,58.3 z M 273.2,87.4 c 28,0 56,0 84,0 9.7,0 22.5,-2 31.8,1.4 13,4.7 16.1,15.2 16.8,26.6 -49.8,0 -99.7,0 -149.5,0 -2.8,0 -5.6,0 -8.5,0 0.1,-2.9 0.1,-5.9 0.7,-8.6 2.9,-11.6 13.2,-19.1 24.7,-19.4 z M 591.9,29.8 c 119.1,0 238.2,0 357.2,0 9.5,28.5 19.1,57 28.6,85.6 -113.1,0 -226.2,0 -339.3,0 -25,0 -50.1,0 -75.1,0 9.5,-28.6 19,-57.1 28.6,-85.6 z m 780.5,156.3 c -10.2,-1.1 -20.7,-0.3 -30.9,-0.3 -18.1,0 -36.1,0 -54.2,0 -11.4,0 -22.9,-0.3 -34.3,0 -24.6,0.5 -47,16.3 -52.9,40.8 -6.6,27.3 9,55.3 35.5,64.3 11.3,3.9 24.3,2.7 36.2,2.7 31.8,0 63.6,0 95.4,0 29,-1 52.8,-23.1 53.8,-52.5 0.9,-28.1 -21.1,-52.1 -48.6,-55 z m -5.3,77.7 c -22.3,0 -44.6,0 -66.9,0 -13.1,0 -26.2,0 -39.4,0 -9.4,0 -18.3,0.2 -25.6,-7.1 -12.9,-12.9 -6.9,-35.6 10.7,-40.4 7.3,-2 16.2,-0.9 23.7,-0.9 28.1,0 56.3,0 84.4,0 10.8,0 21.9,-1.3 30.3,7.1 15.3,15.4 3.7,40.6 -17.2,41.3 z M 679,408 c -83.5,102.2 -95.1,249.8 -26.7,363.2 68.1,112.9 202,171.9 331.4,147.2 147.9,-28.2 253.1,-161.1 255.1,-310 C 1237,477.3 1156.6,358.8 1033.2,312.4 908.6,265.7 763.1,305.1 679,408 Z m 300.7,-80 c 133.2,27.3 227.6,145.5 229.4,280.5 -1.6,118.8 -74.8,227.7 -187.5,268.7 C 909.9,917.9 782.2,884.1 705,793.8 627,702.5 615.3,567.5 676,464 737,359.8 861,303.7 979.7,328 Z"
   id="path2" />
</svg>
