<?xml version="1.0" encoding="UTF-8" standalone="no"?>
<svg
   height="28"
   id="icon"
   viewBox="0 0 26.000011 28"
   width="26.000011"
   version="1.1"
   sodipodi:docname="dokument-icon.svg"
   inkscape:version="1.2.1 (9c6d41e410, 2022-07-14)"
   xmlns:inkscape="http://www.inkscape.org/namespaces/inkscape"
   xmlns:sodipodi="http://sodipodi.sourceforge.net/DTD/sodipodi-0.dtd"
   xmlns="http://www.w3.org/2000/svg"
   xmlns:svg="http://www.w3.org/2000/svg">
  <sodipodi:namedview
     id="namedview18"
     pagecolor="#ffffff"
     bordercolor="#000000"
     borderopacity="0.25"
     inkscape:showpageshadow="2"
     inkscape:pageopacity="0.0"
     inkscape:pagecheckerboard="0"
     inkscape:deskcolor="#d1d1d1"
     showgrid="false"
     inkscape:zoom="25.125"
     inkscape:cx="11.781095"
     inkscape:cy="13.313433"
     inkscape:window-width="1920"
     inkscape:window-height="991"
     inkscape:window-x="-9"
     inkscape:window-y="-9"
     inkscape:window-maximized="1"
     inkscape:current-layer="icon" />
  <defs
     id="defs4">
    <style
       id="style2">.cls-1{fill:none;}</style>
  </defs>
  <title
     id="title6" />
  <path
     id="path14"
     d="M 2,28 A 2.0021,2.0021 0 0 1 0,26 V 2 A 2.0021,2.0021 0 0 1 2,0 h 16 a 2.0021,2.0021 0 0 1 2,2 V 6 H 18 V 2 H 2 v 24 h 10 v 2 z M 5,6 H 15 V 8 H 5 Z m 0,6 h 7 v 2 H 5 Z m 21,4 A 6,6 0 1 0 16,20.46 V 28 L 20,26.1074 24,28 V 20.46 A 5.98,5.98 0 0 0 26,16 Z m -4,8.84 -2,-0.9467 -2,0.9467 v -3.19 a 5.8877,5.8877 0 0 0 4,0 z M 20,20 a 4,4 0 1 1 4,-4 4.0045,4.0045 0 0 1 -4,4 z" />
  <rect
     class="cls-1"
     data-name="&lt;Transparent Rectangle&gt;"
     height="32"
     id="_Transparent_Rectangle_"
     width="32"
     x="-4"
     y="-2" />
</svg>
