<?xml version="1.0" encoding="UTF-8" standalone="no"?>
<svg
   width="22"
   height="22"
   viewBox="0 0 22 22"
   version="1.1"
   id="svg4"
   sodipodi:docname="done-icon.svg"
   inkscape:version="1.2.1 (9c6d41e410, 2022-07-14)"
   xmlns:inkscape="http://www.inkscape.org/namespaces/inkscape"
   xmlns:sodipodi="http://sodipodi.sourceforge.net/DTD/sodipodi-0.dtd"
   xmlns="http://www.w3.org/2000/svg"
   xmlns:svg="http://www.w3.org/2000/svg">
  <defs
     id="defs8" />
  <sodipodi:namedview
     id="namedview6"
     pagecolor="#ffffff"
     bordercolor="#000000"
     borderopacity="0.25"
     inkscape:showpageshadow="2"
     inkscape:pageopacity="0.0"
     inkscape:pagecheckerboard="0"
     inkscape:deskcolor="#d1d1d1"
     showgrid="false"
     inkscape:zoom="33.5"
     inkscape:cx="10.835821"
     inkscape:cy="11.014925"
     inkscape:window-width="1920"
     inkscape:window-height="991"
     inkscape:window-x="-9"
     inkscape:window-y="-9"
     inkscape:window-maximized="1"
     inkscape:current-layer="svg4" />
  <path
     fill-rule="evenodd"
     d="M 3.2218254,18.778175 C 2.2976128,17.853962 2.0324666,16.444184 2.322309,14.594417 0.8093765,13.491384 0,12.307034 0,11 0,9.692966 0.8093765,8.5086161 2.322309,7.4055827 2.0324666,5.5558155 2.2976128,4.1460381 3.2218254,3.2218254 4.1460381,2.2976128 5.5558155,2.0324666 7.4055827,2.322309 8.5086161,0.8093765 9.692966,0 11,0 c 1.307034,0 2.491384,0.8093765 3.594417,2.322309 1.849767,-0.2898424 3.259545,-0.024696 4.183758,0.8995164 0.924212,0.9242127 1.189358,2.3339901 0.899516,4.1837573 C 21.190623,8.5086161 22,9.692966 22,11 c 0,1.307034 -0.809377,2.491384 -2.322309,3.594417 0.289842,1.849767 0.0247,3.259545 -0.899516,4.183758 -0.924213,0.924212 -2.333991,1.189358 -4.183758,0.899516 C 13.491384,21.190623 12.307034,22 11,22 9.692966,22 8.5086161,21.190623 7.4055827,19.677691 5.5558155,19.967533 4.1460381,19.702387 3.2218254,18.778175 Z m 4.4307579,-1.18019 c 0.4059284,-0.08693 0.8233549,0.08597 1.048918,0.434476 C 9.582262,19.393281 10.367633,20 11,20 c 0.632367,0 1.417738,-0.606719 2.298499,-1.967539 0.225563,-0.348507 0.642989,-0.52141 1.048918,-0.434476 1.585037,0.339453 2.569393,0.213127 3.016544,-0.234024 0.447151,-0.447151 0.573477,-1.431507 0.234024,-3.016544 -0.08693,-0.405929 0.08597,-0.823355 0.434476,-1.048918 C 19.393281,12.417738 20,11.632367 20,11 20,10.367633 19.393281,9.582262 18.032461,8.7015013 17.683954,8.4759382 17.511051,8.0585117 17.597985,7.6525833 17.937438,6.0675464 17.811112,5.0831898 17.363961,4.636039 16.91681,4.1888881 15.932454,4.0625621 14.347417,4.4020153 13.941488,4.4889493 13.524062,4.3160456 13.298499,3.9675392 12.417738,2.6067192 11.632367,2 11,2 10.367633,2 9.582262,2.6067192 8.7015013,3.9675392 8.4759382,4.3160456 8.0585117,4.4889493 7.6525833,4.4020153 6.0675464,4.0625621 5.0831898,4.1888881 4.636039,4.636039 4.1888881,5.0831898 4.0625621,6.0675464 4.4020153,7.6525833 4.4889493,8.0585117 4.3160456,8.4759382 3.9675392,8.7015013 2.6067192,9.582262 2,10.367633 2,11 c 0,0.632367 0.6067192,1.417738 1.9675392,2.298499 0.3485064,0.225563 0.5214101,0.642989 0.4344761,1.048918 -0.3394532,1.585037 -0.2131272,2.569393 0.2340237,3.016544 0.4471508,0.447151 1.4315074,0.573477 3.0165443,0.234024 z M 10,11.585786 14.292893,7.2928932 15.707107,8.7071068 10,14.414214 6.2928932,10.707107 7.7071068,9.292893 Z"
     id="path2" />
</svg>
