<?xml version="1.0" encoding="UTF-8" standalone="no"?>
<svg
   height="28.000004"
   style="clip-rule:evenodd;fill-rule:evenodd;stroke-linejoin:round;stroke-miterlimit:2"
   version="1.1"
   viewBox="0 0 16.458 28.000004"
   width="16.458"
   xml:space="preserve"
   id="svg5"
   sodipodi:docname="facebook-icon.svg"
   inkscape:version="1.2.1 (9c6d41e410, 2022-07-14)"
   xmlns:inkscape="http://www.inkscape.org/namespaces/inkscape"
   xmlns:sodipodi="http://sodipodi.sourceforge.net/DTD/sodipodi-0.dtd"
   xmlns="http://www.w3.org/2000/svg"
   xmlns:svg="http://www.w3.org/2000/svg"><defs
     id="defs9" /><sodipodi:namedview
     id="namedview7"
     pagecolor="#ffffff"
     bordercolor="#000000"
     borderopacity="0.25"
     inkscape:showpageshadow="2"
     inkscape:pageopacity="0.0"
     inkscape:pagecheckerboard="0"
     inkscape:deskcolor="#d1d1d1"
     showgrid="false"
     inkscape:zoom="25.125"
     inkscape:cx="8.039801"
     inkscape:cy="13.970149"
     inkscape:window-width="1920"
     inkscape:window-height="991"
     inkscape:window-x="-9"
     inkscape:window-y="-9"
     inkscape:window-maximized="1"
     inkscape:current-layer="svg5" /><g
     id="Icon"
     transform="translate(-7.771,-2.0669969)" /><path
     d="M 4.026,9.5370031 H 1.965 C 0.88,9.5370031 0,10.418003 0,11.502003 c 0,0 0,2.506 0,2.506 0,1.084 0.88,1.965 1.965,1.965 0,0 2.044,0 2.044,0 0,0 0,2.772 0,2.772 0,0.393 0.319,0.712 0.712,0.712 0.393,0 0.712,-0.319 0.712,-0.712 v -3.484 c 0,-0.394 -0.319,-0.712 -0.712,-0.712 H 1.965 c -0.299,0 -0.541,-0.243 -0.541,-0.541 v -2.506 c 0,-0.298 0.242,-0.541 0.541,-0.541 h 2.65 c 0.092,0.02 0.141,0 0.141,0 0.393,0 0.712,-0.319 0.712,-0.712 0,-0.03 -0.002,-0.059 -0.006,-0.088 -0.003,-0.062 -0.042,-1.0349999 -0.047,-7.8819999 0,-0.001 0,-0.001 0,-0.001 0,-0.226 0.09,-0.444 0.25,-0.604 0.161,-0.161 0.379,-0.251 0.605,-0.25 l 8.098,0.015 c 0.368,0 0.666,0.299 0.666,0.667 0,0 0,2.756 0,2.756 0,0.368 -0.298,0.666 -0.666,0.666 0,0 -3.633,0 -3.633,0 -0.393,0 -0.712,0.319 -0.712,0.712 v 4.0089999 c 0,0.393 0.319,0.712 0.712,0.712 h 3.758 c 0.299,0 0.541,0.243 0.541,0.541 0,0 0,2.506 0,2.506 0,0.298 -0.242,0.541 -0.541,0.541 h -3.758 c -0.393,0 -0.712,0.318 -0.712,0.712 v 10.524 c 0,0.436 -0.355,0.791 -0.792,0.791 0,0 -3.007,0 -3.007,0 -0.436,0 -0.791,-0.355 -0.791,-0.791 0,-0.393 -0.319,-0.712 -0.712,-0.712 -0.393,0 -0.712,0.319 -0.712,0.712 0,1.222 0.993,2.215 2.215,2.215 h 3.007 c 1.223,0 2.216,-0.993 2.216,-2.215 0,0 0,-9.812 0,-9.812 0,0 3.046,0 3.046,0 1.085,0 1.965,-0.881 1.965,-1.965 v -2.506 c 0,-1.084 -0.88,-1.9649999 -1.965,-1.9649999 0,0 -3.046,0 -3.046,0 0,0 0,-2.585 0,-2.585 0,0 2.921,0 2.921,0 1.154,0 2.09,-0.937 2.09,-2.09 v -2.756 c 0,-1.15399999 -0.936,-2.08999999 -2.09,-2.08999999 10e-4,0 -5.358,-0.011 -8.095,-0.015999997484 C 5.668,-9.9688748e-4 5.087,0.23900311 4.659,0.66600311 4.231,1.0940031 3.991,1.6740031 3.991,2.2800031 c 0.003,4.336 0.02,6.335 0.035,7.257 z M 4.009,20.896003 v 2.595 c 0,0.393 0.319,0.712 0.712,0.712 0.393,0 0.712,-0.319 0.712,-0.712 v -2.595 c 0,-0.393 -0.319,-0.712 -0.712,-0.712 -0.393,0 -0.712,0.319 -0.712,0.712 z M 5.184,9.6800031 c 0.057,0.043 0.108,0.095 0.15,0.153 -0.062,-0.087 -0.116,-0.127 -0.15,-0.153 z m -0.381,-0.141 c 0.133,0.009 0.255,0.053 0.358,0.125 -0.191,-0.136 -0.32,-0.123 -0.358,-0.125 z"
     id="path3" /></svg>
