<?xml version="1.0" encoding="UTF-8" standalone="no"?>
<svg
   height="29"
   id="icon"
   viewBox="0 0 30 29"
   width="30"
   version="1.1"
   sodipodi:docname="family-icon1.svg"
   inkscape:version="1.2.1 (9c6d41e410, 2022-07-14)"
   xmlns:inkscape="http://www.inkscape.org/namespaces/inkscape"
   xmlns:sodipodi="http://sodipodi.sourceforge.net/DTD/sodipodi-0.dtd"
   xmlns="http://www.w3.org/2000/svg"
   xmlns:svg="http://www.w3.org/2000/svg">
  <sodipodi:namedview
     id="namedview18"
     pagecolor="#ffffff"
     bordercolor="#000000"
     borderopacity="0.25"
     inkscape:showpageshadow="2"
     inkscape:pageopacity="0.0"
     inkscape:pagecheckerboard="0"
     inkscape:deskcolor="#d1d1d1"
     showgrid="false"
     inkscape:zoom="25.125"
     inkscape:cx="14.965174"
     inkscape:cy="12.258706"
     inkscape:window-width="1920"
     inkscape:window-height="991"
     inkscape:window-x="-9"
     inkscape:window-y="-9"
     inkscape:window-maximized="1"
     inkscape:current-layer="icon" />
  <defs
     id="defs4">
    <style
       id="style2">
      .cls-1 {
        fill: none;
      }
    </style>
  </defs>
  <path
     id="path14"
     d="M 17.5,14 A 3.5,3.5 0 1 1 21,10.5 3.5041,3.5041 0 0 1 17.5,14 Z m 0,-5 A 1.5,1.5 0 1 0 19,10.5 1.5017,1.5017 0 0 0 17.5,9 Z M 24,8 A 4,4 0 1 1 28,4 4.0045,4.0045 0 0 1 24,8 Z M 24,2 A 2,2 0 1 0 26,4 2.0021,2.0021 0 0 0 24,2 Z M 6,8 A 4,4 0 1 1 10,4 4.0045,4.0045 0 0 1 6,8 Z M 6,2 A 2,2 0 1 0 8,4 2.0021,2.0021 0 0 0 6,2 Z M 27,29 H 25 V 18 h 3 V 12 A 1.0011,1.0011 0 0 0 27,11 H 23 V 9 h 4 a 3.0033,3.0033 0 0 1 3,3 v 6 a 2.0021,2.0021 0 0 1 -2,2 h -1 z m -8,0 h -3 a 2.0021,2.0021 0 0 1 -2,-2 v -5 h 2 v 5 h 3 v -5 h 2 v -4 a 1.0011,1.0011 0 0 0 -1,-1 h -8.7207 l -2,-6 H 3 a 1.0011,1.0011 0 0 0 -1,1 v 6 h 2 v 9 h 4 v -7 h 2 v 7 A 2.0021,2.0021 0 0 1 8,29 H 4 A 2.0021,2.0021 0 0 1 2,27 V 20 A 2.0021,2.0021 0 0 1 0,18 V 12 A 3.0033,3.0033 0 0 1 3,9 h 6.2793 a 1.998,1.998 0 0 1 1.8975,1.3674 L 12.7207,15 H 20 a 3.0033,3.0033 0 0 1 3,3 v 4 a 2.0021,2.0021 0 0 1 -2,2 v 3 a 2.0021,2.0021 0 0 1 -2,2 z" />
  <rect
     class="cls-1"
     data-name="&lt;Transparent Rectangle&gt;"
     height="32"
     id="_Transparent_Rectangle_"
     width="32"
     x="-1"
     y="-1" />
</svg>
