<?xml version="1.0" encoding="UTF-8" standalone="no"?>
<svg
   height="21.85"
   style="clip-rule:evenodd;fill-rule:evenodd;stroke-linejoin:round;stroke-miterlimit:2"
   version="1.1"
   viewBox="0 0 28.5 21.85"
   width="28.5"
   xml:space="preserve"
   id="svg5"
   sodipodi:docname="gmail-icon.svg"
   inkscape:version="1.2.1 (9c6d41e410, 2022-07-14)"
   xmlns:inkscape="http://www.inkscape.org/namespaces/inkscape"
   xmlns:sodipodi="http://sodipodi.sourceforge.net/DTD/sodipodi-0.dtd"
   xmlns="http://www.w3.org/2000/svg"
   xmlns:svg="http://www.w3.org/2000/svg"><defs
     id="defs9" /><sodipodi:namedview
     id="namedview7"
     pagecolor="#ffffff"
     bordercolor="#000000"
     borderopacity="0.25"
     inkscape:showpageshadow="2"
     inkscape:pageopacity="0.0"
     inkscape:pagecheckerboard="0"
     inkscape:deskcolor="#d1d1d1"
     showgrid="false"
     inkscape:zoom="25.125"
     inkscape:cx="14.288557"
     inkscape:cy="10.905473"
     inkscape:window-width="1920"
     inkscape:window-height="991"
     inkscape:window-x="-9"
     inkscape:window-y="-9"
     inkscape:window-maximized="1"
     inkscape:current-layer="svg5" /><g
     id="Icon"
     transform="translate(-1.5,-5.15)" /><path
     d="m 2.356,4.073 7.256,6.201 -7.38,7.242 C 2.018,17.025 1.9,16.482 1.9,15.912 1.9,15.388 1.474,14.963 0.95,14.963 0.426,14.963 0,15.388 0,15.913 0,19.189 2.661,21.85 5.937,21.85 h 16.625 c 3.277,0 5.938,-2.661 5.938,-5.938 V 5.938 C 28.5,2.661 25.839,0 22.562,0 22.563,0 5.937,0 5.937,0 2.661,0 0,2.661 0,5.938 c 0,0.524 0.426,0.95 0.95,0.95 0.524,0 0.95,-0.426 0.95,-0.95 0,-0.673 0.165,-1.307 0.456,-1.865 z m 8.344,7.13 -7.662,7.518 c 0.734,0.758 1.762,1.229 2.899,1.229 0,0 16.626,0 16.625,0 1.138,0 2.166,-0.471 2.9,-1.229 L 17.8,11.203 14.713,13.842 c -0.267,0.227 -0.659,0.227 -0.926,0 z m 15.444,-7.13 -7.256,6.201 7.38,7.242 c 0.214,-0.491 0.332,-1.034 0.332,-1.603 0,0 0,-9.976 0,-9.975 0,-0.673 -0.165,-1.307 -0.456,-1.865 z M 0,8.55 v 4.75 c 0,0.524 0.426,0.95 0.95,0.95 0.524,0 0.95,-0.426 0.95,-0.95 V 8.55 C 1.9,8.026 1.474,7.6 0.95,7.6 0.426,7.6 0,8.026 0,8.55 Z M 25.271,2.944 C 24.555,2.296 23.604,1.9 22.562,1.9 H 5.937 C 4.896,1.9 3.945,2.296 3.229,2.944 l 11.021,9.419 z"
     id="path3" /></svg>
