<?xml version="1.0" encoding="UTF-8" standalone="no"?>
<svg
   width="18"
   height="22.327572"
   viewBox="0 0 18 22.327572"
   version="1.1"
   id="svg251"
   sodipodi:docname="local-icon.svg"
   inkscape:version="1.2.1 (9c6d41e410, 2022-07-14)"
   xmlns:inkscape="http://www.inkscape.org/namespaces/inkscape"
   xmlns:sodipodi="http://sodipodi.sourceforge.net/DTD/sodipodi-0.dtd"
   xmlns="http://www.w3.org/2000/svg"
   xmlns:svg="http://www.w3.org/2000/svg">
  <defs
     id="defs255" />
  <sodipodi:namedview
     id="namedview253"
     pagecolor="#ffffff"
     bordercolor="#000000"
     borderopacity="0.25"
     inkscape:showpageshadow="2"
     inkscape:pageopacity="0.0"
     inkscape:pagecheckerboard="0"
     inkscape:deskcolor="#d1d1d1"
     showgrid="false"
     inkscape:zoom="33.5"
     inkscape:cx="8.8358209"
     inkscape:cy="11.014925"
     inkscape:window-width="1920"
     inkscape:window-height="991"
     inkscape:window-x="-9"
     inkscape:window-y="-9"
     inkscape:window-maximized="1"
     inkscape:current-layer="svg251" />
  <path
     fill-rule="evenodd"
     d="M 9.657728,21.753255 9,22.327571 8.342272,21.753255 C 2.8113079,16.923722 0,12.70676 0,9 0,3.7506636 4.0970525,0 9,0 c 4.902947,0 9,3.7506636 9,9 0,3.70676 -2.811308,7.923722 -8.342272,12.753255 z M 2,9 C 2,11.849232 4.306612,15.433547 9,19.663404 13.693388,15.433547 16,11.849232 16,9 16,4.8966022 12.835885,2 9,2 5.1641151,2 2,4.8966022 2,9 Z M 9,4 c 2.761424,0 5,2.2385763 5,5 0,2.761424 -2.238576,5 -5,5 C 6.2385763,14 4,11.761424 4,9 4,6.2385763 6.2385763,4 9,4 Z M 9,6 C 7.343146,6 6,7.3431458 6,9 c 0,1.656854 1.343146,3 3,3 1.656854,0 3,-1.343146 3,-3 C 12,7.3431458 10.656854,6 9,6 Z"
     id="path249" />
</svg>
