<?xml version="1.0" encoding="UTF-8" standalone="no"?>
<svg
   width="20"
   height="20.002029"
   viewBox="0 0 20 20.002029"
   version="1.1"
   id="svg629"
   sodipodi:docname="phone-icon.svg"
   inkscape:version="1.2.1 (9c6d41e410, 2022-07-14)"
   xmlns:inkscape="http://www.inkscape.org/namespaces/inkscape"
   xmlns:sodipodi="http://sodipodi.sourceforge.net/DTD/sodipodi-0.dtd"
   xmlns="http://www.w3.org/2000/svg"
   xmlns:svg="http://www.w3.org/2000/svg">
  <defs
     id="defs633" />
  <sodipodi:namedview
     id="namedview631"
     pagecolor="#ffffff"
     bordercolor="#000000"
     borderopacity="0.25"
     inkscape:showpageshadow="2"
     inkscape:pageopacity="0.0"
     inkscape:pagecheckerboard="0"
     inkscape:deskcolor="#d1d1d1"
     showgrid="false"
     inkscape:zoom="33.5"
     inkscape:cx="9.8507463"
     inkscape:cy="10.029851"
     inkscape:window-width="1920"
     inkscape:window-height="991"
     inkscape:window-x="-9"
     inkscape:window-y="-9"
     inkscape:window-maximized="1"
     inkscape:current-layer="svg629" />
  <path
     fill-rule="evenodd"
     d="m 8.9793235,4.2552851 c 0.585962,0.6495326 0.400177,1.385384 -0.117927,2.0835913 -0.122837,0.1655378 -0.264426,0.3286425 -0.435434,0.5083703 -0.08208,0.086267 -0.146085,0.1511451 -0.279961,0.2851528 C 7.8419597,7.4367402 7.5863736,7.6924671 7.3792294,7.8995942 7.278779,8.0000364 7.9646011,9.3705064 9.2955955,10.702809 c 1.3302705,1.331578 2.7006655,2.017872 2.8015885,1.916893 l 0.766244,-0.766666 c 0.421964,-0.422379 0.645426,-0.626166 0.952494,-0.82762 0.638362,-0.418802 1.334648,-0.53261 1.921893,-0.0075 1.917392,1.371527 3.002422,2.213169 3.533983,2.765487 1.036803,1.077288 0.900924,2.73555 0.0059,3.681557 -0.310367,0.328042 -0.703898,0.72179 -1.168693,1.169868 C 15.297451,21.447917 9.3637845,19.735972 4.8162728,15.18399 0.26772955,10.630976 -1.4433014,4.6967428 1.3623493,1.8895856 1.8660442,1.3779748 2.0321171,1.2119864 2.5226732,0.72862374 3.4359983,-0.17130866 5.1707681,-0.31221946 6.2253269,0.72951394 6.7800287,1.2774695 7.6643703,2.4153071 8.9793235,4.2552851 Z m 5.2976905,9.0118119 -0.766395,0.766818 C 12.207909,15.337343 9.9893635,14.226297 7.8818558,12.116717 5.7729021,10.005691 4.6630938,7.7879738 5.9662429,6.4849326 6.1731085,6.2780841 6.4284529,6.0225989 6.7322622,5.718491 6.8548419,5.5957908 6.910913,5.5389533 6.978215,5.4682195 7.0699118,5.3718472 7.1452619,5.2872052 7.2055913,5.2123064 6.0402235,3.5889653 5.248025,2.5746133 4.8209581,2.1527403 4.6004037,1.9348683 4.1065432,1.9749833 3.9252374,2.1536305 3.4416849,2.6300923 3.2827427,2.7889537 2.7810789,3.2984611 0.97676595,5.1037686 2.3580286,9.8942924 6.2300122,13.770082 c 3.8707698,3.874574 8.6605718,5.256498 10.4786158,3.43769 0.457565,-0.441338 0.83043,-0.814409 1.117425,-1.117748 0.207382,-0.219192 0.244443,-0.671482 0.0059,-0.919352 -0.397334,-0.41285 -1.370103,-1.171304 -3.049761,-2.377505 -0.122432,0.09854 -0.272939,0.241475 -0.505166,0.47393 z"
     id="path627" />
</svg>
