<?xml version="1.0" encoding="UTF-8" standalone="no"?>
<svg
   id="Flat"
   viewBox="0 0 208.55988 188.14893"
   version="1.1"
   sodipodi:docname="telegram-icon.svg"
   width="208.55988"
   height="188.14893"
   inkscape:version="1.2.1 (9c6d41e410, 2022-07-14)"
   xmlns:inkscape="http://www.inkscape.org/namespaces/inkscape"
   xmlns:sodipodi="http://sodipodi.sourceforge.net/DTD/sodipodi-0.dtd"
   xmlns="http://www.w3.org/2000/svg"
   xmlns:svg="http://www.w3.org/2000/svg">
  <defs
     id="defs761" />
  <sodipodi:namedview
     id="namedview759"
     pagecolor="#ffffff"
     bordercolor="#000000"
     borderopacity="0.25"
     inkscape:showpageshadow="2"
     inkscape:pageopacity="0.0"
     inkscape:pagecheckerboard="0"
     inkscape:deskcolor="#d1d1d1"
     showgrid="false"
     inkscape:zoom="3.140625"
     inkscape:cx="102.20896"
     inkscape:cy="96.477612"
     inkscape:window-width="1920"
     inkscape:window-height="991"
     inkscape:window-x="-9"
     inkscape:window-y="-9"
     inkscape:window-maximized="1"
     inkscape:current-layer="Flat" />
  <path
     d="M 204.38677,2.911573 A 11.96514,11.96514 0 0 0 192.16899,0.83637296 L 7.6118563,73.341263 a 11.99915,11.99915 0 0 0 2.03467,22.93457 L 59.740766,106.29536 v 61.833 a 11.8137,11.8137 0 0 0 7.40771,11.08593 12.17148,12.17148 0 0 0 4.66846,0.94434 11.83219,11.83219 0 0 0 8.40918,-3.5459 l 28.596194,-28.59619 42.19336,37.13043 a 11.89844,11.89844 0 0 0 7.88819,3.00195 12.112,12.112 0 0 0 3.72265,-0.59082 11.89762,11.89762 0 0 0 8.01319,-8.73925 L 208.25347,14.685973 a 11.97177,11.97177 0 0 0 -3.8667,-11.7744 z M 8.0156663,84.862743 a 3.86572,3.86572 0 0 1 2.5219997,-4.07617 L 179.71294,14.324413 62.813036,98.751663 11.215376,88.432083 A 3.86618,3.86618 0 0 1 8.0156663,84.862743 Z M 74.568886,170.95649 a 3.99976,3.99976 0 0 1 -6.82812,-2.82812 v -56.26392 l 35.064004,30.85669 z M 200.45561,12.898873 162.84184,177.03169 a 4.0003,4.0003 0 0 1 -6.5415,2.10937 L 70.146036,103.32466 199.80913,9.679663 a 3.80732,3.80732 0 0 1 0.64648,3.21921 z"
     id="path756" />
</svg>
